<svg class="iconSvg-2ArbZ iconFill-65mNB" alt="" aria-label="" xmlns="http://www.w3.org/2000/svg" version="1.1" viewBox="0 0 1024 1024" width="1em" height="1em"><path d="M510.8 575.6c204.6 0 323.5 71 356.9 212.9 9 38.1-14.7 76.3-52.8 85.3-5.4 1.3-10.9 1.9-16.4 1.9l-575.5 0c-39.2-0.1-70.9-31.9-70.8-71.1 0-5.4 0.6-10.8 1.9-16.1 33.2-141.9 152.1-212.9 356.7-212.9z m0 81c-161 0-244.7 44.6-273.3 134l-1.2 4 549.1 0-1.1-3.8c-27.8-86.8-107.6-131.5-259.5-134l-14-0.2z m1.2-523.8c103.2 0 186.8 83.6 186.8 186.8 0 103.2-83.6 186.8-186.8 186.8-103.2 0-186.8-83.6-186.8-186.8 0-103.2 83.6-186.8 186.8-186.8z m0 81c-58.4 0-105.8 47.3-105.8 105.8 0 58.4 47.3 105.8 105.8 105.7 58.4 0 105.8-47.3 105.8-105.7 0-58.4-47.3-105.8-105.8-105.8z"></path></svg>