<svg xmlns="http://www.w3.org/2000/svg" version="1.1" viewBox="0 0 1024 1024" width="1em" height="1em" fill="currentColor" color="#ADFFA2" class="icon-260pq" aria-hidden="true"><path d="M675 167.4c44.9 0 81.6 35 84.4 79.2l0.2 5.4 0 58.1 136.4 56.5c29.7 12.3 49.7 40.4 52 72.1l0.2 6 0 224.9c0 44.9-35 81.6-79.2 84.4l-5.4 0.2-7.1 0c-8.2 56-53.2 99.7-108.8 99.7-55.6 0-100.6-43.7-108.8-99.7l-213.6 0c-8.2 56-53.2 99.7-108.8 99.7-55.6 0-100.6-43.7-108.8-99.7l-6.9 0c-44.9 0-81.6-35-84.4-79.2l-0.2-5.4 0-77.1c0-17.7 14.3-32 32-32 16.4 0 29.9 12.4 31.8 28.2l0.2 3.8 0 77.1c0 10.3 7.6 18.9 17.5 20.4l3.1 0.2 494.8 0 0-438.2c0-10.3-7.6-18.9-17.6-20.4l-3-0.2-474.2 0c-10.3 0-18.9 7.6-20.4 17.5l-0.2 3.1 0 78.8 161.2 0c16.4 0 29.9 12.4 31.7 28.3l0.3 3.7c0 16.4-12.4 29.9-28.3 31.8l-3.7 0.2-193.2 0c-16.4 0-29.9-12.4-31.8-28.3l-0.2-3.7 0-110.8c0-44.9 35-81.6 79.2-84.4l5.4-0.2 474.2 0z m-315.1 586.8l-86.8 0c6.5 21.1 23.9 35.7 43.4 35.7 19.4 0 36.8-14.6 43.4-35.7z m431.2 0l-86.8 0c6.5 21.1 23.9 35.7 43.4 35.7 19.4 0 36.8-14.6 43.4-35.7z m-31.5-374.9l0 310.9 104 0c9.2 0 17-6 19.6-14.3l0.8-3.2 0.2-3.1 0-224.9c0-7.3-3.8-13.9-9.9-17.6l-2.8-1.4-111.9-46.4z m-563.4 68.4c17.7 0 32 14.3 32 32 0 17.7-14.3 32-32 32l-115.4 0c-17.7 0-32-14.3-32-32 0-17.7 14.3-32 32-32l115.4 0z"></path></svg>