<svg xmlns="http://www.w3.org/2000/svg" version="1.1" xmlns:xlink="http://www.w3.org/1999/xlink" viewBox="0 0 1024 1024" fill="#000"><path d="M512 118.2c21.8 0 39.4 17.6 39.4 39.3 0 20.2-15.2 36.8-34.8 39.2l-4.6 0.2-236.3 0c-20.2 0-36.8 15.2-39.1 34.8l-0.3 4.6 0 551.4c0 20.2 15.2 36.8 34.8 39.1l4.6 0.3 472.6 0c20.2 0 36.8-15.2 39.1-34.8l0.3-4.6 0-315.1c0-21.8 17.6-39.4 39.4-39.4 20.2 0 36.8 15.2 39.1 34.8l0.3 4.6 0 315.1c0 62.9-49.2 114.4-111.2 117.9l-7 0.2-472.6 0c-62.9 0-114.4-49.2-118-111.2l-0.2-6.9 0-551.4c0-62.9 49.2-114.4 111.2-117.9l7-0.2 236.3 0z m157.5 472.6c21.8 0 39.4 17.6 39.4 39.4 0 21.8-17.6 39.4-39.4 39.3l-315 0c-21.8 0-39.4-17.6-39.4-39.3 0-21.8 17.6-39.4 39.4-39.4l315 0z m-196.9-236.3c21.8 0 39.4 17.6 39.4 39.3 0 21.8-17.6 39.4-39.4 39.4l-118.1 0c-21.8 0-39.4-17.6-39.4-39.4 0-21.8 17.6-39.4 39.4-39.3l118.1 0z m410.1-252.6c15.4 15.4 15.4 40.3 0 55.7l-213.1 213.1c-15.4 15.4-40.3 15.4-55.7 0-15.4-15.4-15.4-40.3 0-55.7l213.1-213.1c15.4-15.4 40.3-15.4 55.7 0z"></path></svg>