<svg xmlns="http://www.w3.org/2000/svg" version="1.1" viewBox="0 0 1024 1024" width="1em" height="1em" fill="currentColor" class="icon-285Gf"><path d="M512 213.3c188.2 0 350.6 131 425.4 329.2-74.8 179.8-237.1 310.8-425.4 310.8-188.2 0-350.6-131-425.4-310.7 74.8-198.3 237.1-329.3 425.4-329.3z m0 149.4c-94.3 0-170.7 76.4-170.7 170.6 0 94.3 76.4 170.7 170.7 170.7 94.3 0 170.7-76.4 170.7-170.7 0-94.3-76.4-170.7-170.7-170.6z m0 46.9c68.3 0 123.7 55.4 123.7 123.7 0 68.3-55.4 123.7-123.7 123.8-68.3 0-123.7-55.4-123.7-123.8 0-68.3 55.4-123.7 123.7-123.7z"></path></svg>