<svg xmlns="http://www.w3.org/2000/svg" version="1.1" viewBox="0 0 1024 1024" width="1em" height="1em" fill="currentColor" color="#FFF7A7" class="icon-260pq" aria-hidden="true"><path d="M810.2 182.4c38.9 0 70.4 31.5 70.4 70.4l0 91.6c0 32.5-22 59.8-52 68l0 358.8c0 38.9-31.5 70.4-70.4 70.4l-492.4 0c-38.9 0-70.4-31.5-70.4-70.4l0-358.8c-29.9-8.1-52-35.5-52-68l0-91.6c0-38.9 31.5-70.4 70.4-70.4l596.4 0z m-43.3 243.5l-509.8 0 0 345.3c0 4.1 2.9 7.6 6.7 8.5l2 0.2 492.4 0c4.8 0 8.7-3.9 8.7-8.7l0-345.3z m-239 64.1c11.2 11 12.2 28.5 2.9 40.7l-2.6 2.9-37.8 38.5 120.4 0c17 0 30.8 13.8 30.8 30.8 0 15.8-11.9 28.9-27.2 30.7l-3.6 0.2-109.4 0 26.8 27.3c11 11.2 11.7 28.7 2.3 40.7l-2.6 2.9c-11.2 11-28.7 11.7-40.8 2.2l-2.9-2.6-83.9-85.3c-10.9-11.1-11.7-28.3-2.5-40.4l2.5-2.9 83.9-85.3c11.9-12.1 31.5-12.3 43.7-0.4z m282.3-245.9l-596.4 0c-4.8 0-8.7 3.9-8.7 8.7l0 91.6c0 4.8 3.9 8.7 8.7 8.7l596.4 0c4.8 0 8.7-3.9 8.7-8.7l0-91.6c0-4.8-3.9-8.7-8.7-8.7z"></path></svg>