<svg xmlns="http://www.w3.org/2000/svg" version="1.1" viewBox="0 0 1024 1024" width="1em" height="1em" fill="currentColor" color="#FFF7A7" class="icon-260pq" aria-hidden="true"><path d="M616.2 823.7c16.9-4.4 34.1 5.7 38.4 22.5 4.4 16.9-5.7 34.1-22.5 38.5-32.6 8.6-66.2 12.7-99.8 12.4-17.4-0.2-31.4-14.4-31.2-31.9 0.2-17.4 14.4-31.4 31.8-31.1 28 0.3 56-3.2 83.3-10.4z m-287.8-25.6c9.1-14.9 28.5-19.6 43.2-10.4l18.2 10.2c19 9.9 38.6 17.8 58.8 23.7 16.8 4.9 26.3 22.3 21.4 39.1-4.9 16.8-22.3 26.3-39 21.5-30.3-8.8-59.5-21.4-87.3-37.8l-4.9-3c-14.9-9.1-19.6-28.5-10.4-43.3l0 0z m433.3-58.3c12.3-12.3 32.3-12.4 44.6-0.1 12.3 12.3 12.4 32.3 0.1 44.6-23.9 24-50.6 44.6-79.6 61.4-15 8.7-34.3 3.6-43.1-11.5-8.7-15-3.6-34.3 11.5-43 24.2-14.1 46.6-31.3 66.5-51.4l0 0z m-548.8-86.6c15.3-8.4 34.4-2.7 42.8 12.6 13.5 24.8 30.1 47.7 49.4 68.1 12 12.6 11.4 32.6-1.2 44.6-12.6 12-32.6 11.4-44.6-1.3-23.1-24.4-42.9-51.7-59-81.2-8.4-15.3-2.7-34.4 12.6-42.8z m330-371.2c16.2 0 29.4 13.2 29.4 29.4l0 32.5c10.1 1.8 21.5 5 34.3 9.6l3.4 1.5c15.8 7.9 22.2 27.1 14.2 42.9-8.1 16-27.1 23.1-43.7 16.2-10.1-4.1-18.2-6.3-24.5-6.2-9.9 0-18.4 2.3-25.3 7-6.8 4.7-10.4 10.5-10.3 17.3 0 6.1 3 11.7 8.9 16.9 4.4 3.8 8.5 6.5 12.2 8.1l13.3 5c5 1.8 11.4 4 19.1 6.6 23.9 8.3 42.4 18.7 55.6 31.2 14.7 13.8 22.1 33.3 22.1 58.8 0 26.6-7.4 48.7-22.1 66.3-10.7 13.2-29.2 24.1-55.3 32.9l-1.9 0.6 0 41.1c0 16.2-13.2 29.4-29.4 29.5-16.2 0-29.4-13.2-29.5-29.5l0-36.9c-15-1.8-29.9-5.5-44.9-11.2l-5.8-2.4-6.7-3.3c-17.6-9.4-25.1-30.1-18.4-48.2l2.6-5.6c9.2-16.1 29.6-21.7 45.7-12.7 19.7 11.2 35.2 16.8 46.6 16.9 10.9 0 20-3 27.5-8.9 7.4-5.9 11.2-13.2 11.1-21.8 0-6.8-2.9-12.7-8.7-17.6-4.3-3.6-8.2-6.1-11.7-7.5l-8.2-3-22.4-7.3c-23.7-7.3-42.1-16.5-54.9-27.4-16.4-14.1-24.6-34.2-24.6-60.5 0-16.8 3.6-32.5 10.8-47.6 7.1-15 16.9-27 29.4-36 8.9-6.6 19.8-11.3 32.6-14.1l0-33.2c0-16.2 13.2-29.4 29.5-29.4l0 0z m185.9-115.3c183.6 108.1 246.5 347.3 140.6 534.4l-2.6 4.6c-8.7 15-28.1 20.1-43.2 11.3-15-8.7-20.1-28.1-11.4-43.1l2.3-3.7c89-157.3 36.2-358.4-117.7-449.1-153.5-90.4-349.8-36.8-438.6 120.1-26.8 47.2-41.3 99.4-43.1 152.6-1.2 35.4-51 42.2-61.6 8.3l-48.9-156c-5.2-16.6 4.1-34.3 20.7-39.5 16.6-5.2 34.3 4.1 39.5 20.7l12.2 39.1 3.5-9.1c4.3-10.7 9.1-21.3 14.5-31.7l8.3-15.5c106.1-187.4 341.5-251.8 525.5-143.4z"></path></svg>